<svg xmlns="http://www.w3.org/2000/svg" width="48" height="48" viewBox="0 0 48 48"><rect width="48" height="48" rx="12" fill="#00AEEF"/><path d="M16.87 27.07l-2.54-2.51.03-.03c1.74-1.94 2.98-4.17 3.71-6.53H21V16h-7v-2h-2v2H5v1.99h11.17C15.5 19.92 14.44 21.75 13 23.35c-.93-1.03-1.7-2.16-2.31-3.35h-2c.73 1.63 1.73 3.17 2.98 4.56l-5.09 5.02L8 31l5-5 3.11 3.11.76-2.04zM22.5 22h-2L16 34h2l1.12-3h4.75L25 34h2l-4.5-12zm-2.62 7l1.62-4.33L23.12 29h-3.24z" fill="white" transform="translate(8 4) scale(1.1)"/></svg>
